<?xml version="1.0" encoding="UTF-8" standalone="no"?>
<!-- Created with Inkscape (http://www.inkscape.org/) -->

<svg
   width="220mm"
   height="220mm"
   viewBox="0 0 220 220"
   version="1.1"
   id="svg1"
   xml:space="preserve"
   sodipodi:docname="icon.svg"
   inkscape:version="1.4.3 (0d15f75042, 2025-12-25)"
   xmlns:inkscape="http://www.inkscape.org/namespaces/inkscape"
   xmlns:sodipodi="http://sodipodi.sourceforge.net/DTD/sodipodi-0.dtd"
   xmlns="http://www.w3.org/2000/svg"
   xmlns:svg="http://www.w3.org/2000/svg"><sodipodi:namedview
     id="namedview1"
     pagecolor="#ffffff"
     bordercolor="#000000"
     borderopacity="0.25"
     inkscape:showpageshadow="2"
     inkscape:pageopacity="0.0"
     inkscape:pagecheckerboard="0"
     inkscape:deskcolor="#d1d1d1"
     inkscape:document-units="mm"
     showguides="true"
     inkscape:zoom="0.25344767"
     inkscape:cx="159.7963"
     inkscape:cy="507.00802"
     inkscape:window-width="1463"
     inkscape:window-height="837"
     inkscape:window-x="0"
     inkscape:window-y="0"
     inkscape:window-maximized="1"
     inkscape:current-layer="layer1" /><defs
     id="defs1"><filter
       inkscape:label="Combined Lighting"
       inkscape:menu="Bevels"
       inkscape:menu-tooltip="Basic specular bevel to use for building textures"
       style="color-interpolation-filters:sRGB"
       id="filter3"
       x="-0.15599983"
       y="-0.15599997"
       width="1.3119997"
       height="1.3119999"><feGaussianBlur
         stdDeviation="6"
         in="SourceGraphic"
         result="result0"
         id="feGaussianBlur1" /><feDiffuseLighting
         lighting-color="#ffffff"
         diffuseConstant="1"
         surfaceScale="4"
         result="result5"
         id="feDiffuseLighting1"><feDistantLight
           elevation="45"
           azimuth="235"
           id="feDistantLight1" /></feDiffuseLighting><feComposite
         k1="1.4"
         in2="SourceGraphic"
         in="result5"
         result="fbSourceGraphic"
         operator="arithmetic"
         k2="0"
         k3="0"
         k4="0"
         id="feComposite1" /><feGaussianBlur
         result="result0"
         in="fbSourceGraphic"
         stdDeviation="6"
         id="feGaussianBlur2" /><feSpecularLighting
         specularExponent="25"
         specularConstant="1"
         surfaceScale="4"
         lighting-color="#ffffff"
         result="result1"
         in="result0"
         id="feSpecularLighting2"><feDistantLight
           azimuth="235"
           elevation="45"
           id="feDistantLight2" /></feSpecularLighting><feComposite
         k3="1"
         k2="1"
         operator="arithmetic"
         in="fbSourceGraphic"
         in2="result1"
         result="result4"
         k1="0"
         k4="0"
         id="feComposite2" /><feGaussianBlur
         stdDeviation="1"
         in="result4"
         result="result6"
         id="feGaussianBlur3" /><feComposite
         operator="in"
         result="result2"
         in2="SourceGraphic"
         in="result6"
         id="feComposite3" /></filter><filter
       inkscape:label="In and Out"
       inkscape:menu="Shadows and Glows"
       inkscape:menu-tooltip="Inner colorized shadow, outer black shadow"
       style="color-interpolation-filters:sRGB"
       id="filter4"
       x="-0.047999948"
       y="-0.04799999"
       width="1.1209999"
       height="1.121"><feGaussianBlur
         result="result0"
         in="SourceAlpha"
         stdDeviation="4"
         id="feGaussianBlur4" /><feOffset
         dx="5"
         dy="5"
         result="result4"
         id="feOffset4" /><feComposite
         in="SourceGraphic"
         in2="result4"
         operator="xor"
         result="result3"
         id="feComposite4" /></filter><filter
       inkscape:label="Combined Lighting"
       inkscape:menu="Bevels"
       inkscape:menu-tooltip="Basic specular bevel to use for building textures"
       style="color-interpolation-filters:sRGB"
       id="filter7"
       x="-0.126844"
       y="-0.15472915"
       width="1.253688"
       height="1.3094583"><feGaussianBlur
         stdDeviation="1.4437935"
         in="SourceGraphic"
         result="result0"
         id="feGaussianBlur5" /><feDiffuseLighting
         lighting-color="#ffffff"
         diffuseConstant="1"
         surfaceScale="4"
         result="result5"
         id="feDiffuseLighting5"><feDistantLight
           elevation="45"
           azimuth="235"
           id="feDistantLight5" /></feDiffuseLighting><feComposite
         k1="1.4"
         in2="SourceGraphic"
         in="result5"
         result="fbSourceGraphic"
         operator="arithmetic"
         k2="0"
         k3="0"
         k4="0"
         id="feComposite5" /><feGaussianBlur
         result="result0"
         in="fbSourceGraphic"
         stdDeviation="6"
         id="feGaussianBlur6" /><feSpecularLighting
         specularExponent="25"
         specularConstant="1"
         surfaceScale="4"
         lighting-color="#ffffff"
         result="result1"
         in="result0"
         id="feSpecularLighting6"><feDistantLight
           azimuth="235"
           elevation="45"
           id="feDistantLight6" /></feSpecularLighting><feComposite
         k3="1"
         k2="1"
         operator="arithmetic"
         in="fbSourceGraphic"
         in2="result1"
         result="result4"
         k1="0"
         k4="0"
         id="feComposite6" /><feGaussianBlur
         stdDeviation="1"
         in="result4"
         result="result6"
         id="feGaussianBlur7" /><feComposite
         operator="in"
         result="result2"
         in2="SourceGraphic"
         in="result6"
         id="feComposite7" /></filter><filter
       inkscape:label="In and Out"
       inkscape:menu="Shadows and Glows"
       inkscape:menu-tooltip="Inner colorized shadow, outer black shadow"
       style="color-interpolation-filters:sRGB"
       id="filter8"
       x="-0.06008863"
       y="-0.073298406"
       width="1.1514734"
       height="1.1847731"><feGaussianBlur
         result="result0"
         in="SourceAlpha"
         stdDeviation="4"
         id="feGaussianBlur8" /><feOffset
         dx="5"
         dy="5"
         result="result4"
         id="feOffset8" /><feComposite
         in="SourceGraphic"
         in2="result4"
         operator="xor"
         result="result3"
         id="feComposite8" /></filter></defs><g
     inkscape:label="图层 1"
     inkscape:groupmode="layer"
     id="layer1"
     transform="translate(6.2001075,6.2000224)"><g
       id="g2"
       transform="translate(-22.877052,-20.356766)"
       style="fill:#eceff4"><path
         style="fill:#eceff4;fill-opacity:1;fill-rule:evenodd;stroke:none;stroke-width:0.5;stroke-linecap:butt;stroke-dasharray:none;stroke-opacity:1"
         d="m 225,125 c -0.26098,-20.90907 -0.26,-53.3506 -0.785,-59.9045 -0.526,-6.5539 -1.318,-11.0804 -2.396,-14.9776 -1.078,-3.8973 -2.443,-7.0238 -4.139,-9.7029 -1.695,-2.6791 -3.721,-4.8913 -6.172,-6.7595 -2.452,-1.8682 -5.32,-3.3862 -8.846,-4.6112 -3.526,-1.225 -7.642,-2.1538 -13.227,-2.8142 -5.585,-0.6605 -9.831,-1.0505 -26.605,-1.1812 -16.774,-0.1307 -84.3142,-5e-4 -92.3192,0.3922 -8.0049,0.3926 -12.9712,1.0491 -17.3103,1.9847 -4.3391,0.9356 -7.7552,2.1514 -10.6844,3.6835 -2.9292,1.5322 -5.3424,3.3806 -7.3923,5.6235 -2.0499,2.2428 -3.7286,4.8749 -5.1047,8.0825 -1.376,3.2077 -2.4458,6.9533 -3.2428,11.8355 -0.797,4.8821 -1.319,10.1717 -1.5805,20.7097 -0.2616,10.538 -0.2611,84.7265 0,95.2795 0.261,10.552 0.784,15.825 1.5805,20.709 0.7964,4.885 1.8674,8.627 3.2428,11.836 1.3755,3.208 3.0556,5.839 5.1047,8.082 2.0491,2.244 4.4642,4.091 7.3923,5.624 2.9281,1.532 6.3473,2.747 10.6844,3.683 4.3372,0.936 9.3127,1.592 17.3103,1.985 7.9977,0.393 75.5002,0.522 92.3192,0.392 16.819,-0.13 21.017,-0.521 26.605,-1.181 5.589,-0.66 9.7,-1.59 13.227,-2.814 3.527,-1.225 6.393,-2.744 8.846,-4.611 2.452,-1.868 4.476,-4.082 6.172,-6.76 1.697,-2.678 3.06,-5.807 4.139,-9.703 1.079,-3.895 1.87,-8.428 2.396,-14.977 0.526,-6.55 0.69369,-34.29585 0.785,-59.904"
         title="copysign(pow(fabs(cos(t)), 1.0/3.0), cos(t)) copysign(pow(fabs(sin(t)), 1.0/3.0), sin(t))"
         id="path2"
         sodipodi:nodetypes="ccsccscscsccccccccccsssccccccc" /><path
         style="opacity:0.225142;fill:#eceff4;fill-opacity:1;fill-rule:evenodd;stroke:none;stroke-width:0.5;stroke-linecap:butt;stroke-dasharray:none;stroke-opacity:1;filter:url(#filter4)"
         d="m 225.00011,125.00016 c -0.26098,-20.90907 -0.26,-53.350602 -0.785,-59.904502 -0.526,-6.5539 -1.318,-11.0804 -2.396,-14.9776 -1.078,-3.8973 -2.443,-7.0238 -4.139,-9.7029 -1.695,-2.6791 -3.721,-4.8913 -6.172,-6.7595 -2.452,-1.8682 -5.32,-3.3862 -8.846,-4.6112 -3.526,-1.225 -7.642,-2.1538 -13.227,-2.8142 -5.585,-0.6605 -9.831,-1.0505 -26.605,-1.1812 -16.774,-0.1307 -84.314206,-5e-4 -92.319206,0.3922 -8.0049,0.3926 -12.9712,1.0491 -17.3103,1.9847 -4.3391,0.9356 -7.7552,2.1514 -10.6844,3.6835 -2.9292,1.5322 -5.3424,3.3806 -7.3923,5.6235 -2.0499,2.2428 -3.7286,4.8749 -5.1047,8.0825 -1.376,3.2077 -2.4458,6.9533 -3.2428,11.8355 -0.797,4.8821 -1.319,10.1717 -1.5805,20.7097 -0.2616,10.538 -0.2611,84.726502 0,95.279502 0.261,10.552 0.784,15.825 1.5805,20.709 0.7964,4.885 1.8674,8.627 3.2428,11.836 1.3755,3.208 3.0556,5.839 5.1047,8.082 2.0491,2.244 4.4642,4.091 7.3923,5.624 2.9281,1.532 6.3473,2.747 10.6844,3.683 4.3372,0.936 9.3127,1.592 17.3103,1.985 7.9977,0.393 75.500206,0.522 92.319206,0.392 16.819,-0.13 21.017,-0.521 26.605,-1.181 5.589,-0.66 9.7,-1.59 13.227,-2.814 3.527,-1.225 6.393,-2.744 8.846,-4.611 2.452,-1.868 4.476,-4.082 6.172,-6.76 1.697,-2.678 3.06,-5.807 4.139,-9.703 1.079,-3.895 1.87,-8.428 2.396,-14.977 0.526,-6.55 0.69369,-34.29585 0.785,-59.904"
         title="copysign(pow(fabs(cos(t)), 1.0/3.0), cos(t)) copysign(pow(fabs(sin(t)), 1.0/3.0), sin(t))"
         id="path2-1"
         sodipodi:nodetypes="ccsccscscsccccccccccsssccccccc" /><path
         style="opacity:0.323807;fill:#eceff4;fill-opacity:1;fill-rule:evenodd;stroke:none;stroke-width:0.5;stroke-linecap:butt;stroke-dasharray:none;stroke-opacity:1;filter:url(#filter3)"
         d="m 225.00011,125.00016 c -0.26098,-20.90907 -0.26,-53.3506 -0.785,-59.9045 -0.526,-6.5539 -1.318,-11.0804 -2.396,-14.9776 -1.078,-3.8973 -2.443,-7.0238 -4.139,-9.7029 -1.695,-2.6791 -3.721,-4.8913 -6.172,-6.7595 -2.452,-1.8682 -5.32,-3.3862 -8.846,-4.6112 -3.526,-1.225 -7.642,-2.1538 -13.227,-2.8142 -5.585,-0.6605 -9.831,-1.0505 -26.605,-1.1812 -16.774,-0.1307 -84.314206,-5e-4 -92.319206,0.3922 -8.0049,0.3926 -12.9712,1.0491 -17.3103,1.9847 -4.3391,0.9356 -7.7552,2.1514 -10.6844,3.6835 -2.9292,1.5322 -5.3424,3.3806 -7.3923,5.6235 -2.0499,2.2428 -3.7286,4.8749 -5.1047,8.0825 -1.376,3.2077 -2.4458,6.9533 -3.2428,11.8355 -0.797,4.8821 -1.319,10.1717 -1.5805,20.7097 -0.2616,10.538 -0.2611,84.7265 0,95.2795 0.261,10.552 0.784,15.825 1.5805,20.709 0.7964,4.885 1.8674,8.627 3.2428,11.836 1.3755,3.208 3.0556,5.839 5.1047,8.082 2.0491,2.244 4.4642,4.091 7.3923,5.624 2.9281,1.532 6.3473,2.747 10.6844,3.683 4.3372,0.936 9.3127,1.592 17.3103,1.985 7.9977,0.393 75.500206,0.522 92.319206,0.392 16.819,-0.13 21.017,-0.521 26.605,-1.181 5.589,-0.66 9.7,-1.59 13.227,-2.814 3.527,-1.225 6.393,-2.744 8.846,-4.611 2.452,-1.868 4.476,-4.082 6.172,-6.76 1.697,-2.678 3.06,-5.807 4.139,-9.703 1.079,-3.895 1.87,-8.428 2.396,-14.977 0.526,-6.55 0.69369,-34.29585 0.785,-59.904"
         title="copysign(pow(fabs(cos(t)), 1.0/3.0), cos(t)) copysign(pow(fabs(sin(t)), 1.0/3.0), sin(t))"
         id="path2-3"
         sodipodi:nodetypes="ccsccscscsccccccccccsssccccccc" /></g><g
       id="g1"
       transform="translate(-22.877052,-20.356766)"
       style="fill:#477fd1;fill-opacity:1"><path
         style="fill:#477fd1;stroke-width:0.723689;fill-opacity:1"
         d="m 187.60523,189.70071 c -0.99186,-0.44073 -2.38764,-1.00775 -3.10182,-1.25974 l -1.2985,-0.45845 -11.75844,-0.0829 c -8.4954,-0.0605 -11.93867,-0.1313 -12.40782,-0.25714 -2.2052,-0.59161 -4.18777,-1.46734 -5.62159,-2.48298 -2.02037,-1.43127 -4.12052,-4.0443 -5.05546,-6.29044 -0.95049,-2.28303 -1.0296,-2.83458 -1.17583,-8.19954 -0.0739,-2.69795 -0.10905,-8.50872 -0.0797,-12.91266 0.0521,-7.56881 0.0725,-8.0769 0.36193,-9.27716 1.44901,-5.99231 5.91933,-10.27507 11.87161,-11.37358 1.56685,-0.28918 26.9691,-0.28893 28.55345,2.8e-4 6.06827,1.10756 10.81361,5.94798 11.90367,12.14221 0.15636,0.88875 0.21515,2.32503 0.21516,5.26202 6e-5,6.26554 -0.27238,18.76686 -0.4377,20.08612 -0.31306,2.49766 -1.13821,4.74896 -2.44712,6.67642 -0.83267,1.22628 -2.41947,2.87106 -3.69873,3.83387 -1.23758,0.93141 -1.65131,1.5725 -1.99512,3.09199 -0.32521,1.43649 -0.49124,1.84588 -0.85092,2.09772 -0.50817,0.35601 -1.10355,0.23675 -2.97786,-0.59592 z m -0.98916,-12.64712 c 0.12129,-0.0991 0.33242,-0.60234 0.46975,-1.11816 0.47799,-1.79721 1.40347,-2.88217 2.96723,-3.47829 1.512,-0.57643 1.50476,-1.21466 -0.0204,-1.77269 -1.53634,-0.5625 -2.45716,-1.66879 -2.94554,-3.53948 -0.29836,-1.14237 -0.4828,-1.37867 -0.97952,-1.25389 -0.28441,0.0719 -0.40276,0.23079 -0.52224,0.70398 -0.40664,1.60979 -1.09844,2.87161 -1.87916,3.42752 -0.2587,0.18416 -0.83451,0.48256 -1.27943,0.66296 -0.44511,0.1803 -0.86731,0.41892 -0.93855,0.53027 -0.22292,0.34863 0.0204,0.92786 0.43264,1.03142 1.76707,0.44346 2.9475,1.70343 3.57383,3.81504 0.33857,1.14112 0.627,1.39622 1.12124,0.99132 z m -16.46625,-3.21107 c 0.30287,-0.15667 0.46606,-0.38845 0.5836,-0.82961 1.8249,-6.84211 4.30068,-9.60335 10.37952,-11.57643 1.38789,-0.45034 1.87553,-0.80945 1.87553,-1.38057 0,-0.63454 -0.41899,-0.94406 -1.9477,-1.43925 -5.95281,-1.92768 -8.26851,-4.41459 -10.16478,-10.91589 -0.34892,-1.19565 -0.82547,-1.70933 -1.44318,-1.5552 -0.54685,0.13638 -0.85566,0.47925 -1.02456,1.13796 -0.60202,2.3456 -1.62868,4.79685 -2.65894,6.34894 -1.47286,2.2192 -4.21346,3.97847 -7.96357,5.11193 -0.70703,0.21374 -1.13124,0.43384 -1.33468,0.69222 -0.68744,0.87401 -0.27409,1.31881 1.93844,2.08614 3.05706,1.0602 4.73063,2.04293 6.28511,3.69068 1.50867,1.59935 2.47303,3.46209 3.45918,6.68231 0.49591,1.61944 0.6132,1.84112 1.07133,2.02679 0.41506,0.16816 0.47419,0.1634 0.9447,-0.0801 z m -66.72947,7.19851 c -8.569362,-0.83014 -15.011077,-2.62313 -22.058875,-6.13995 -6.208397,-3.09803 -11.621683,-7.0512 -17.055912,-12.45547 -4.597768,-4.57251 -7.715378,-8.45848 -10.590644,-13.20135 -6.621133,-10.92165 -9.494209,-23.22894 -8.352724,-35.78033 1.392431,-15.310496 10.581604,-31.338993 22.884042,-39.916335 9.698778,-6.762034 21.482304,-9.120726 34.811843,-6.968226 1.39863,0.225846 2.3323,0.295927 3.31842,0.249047 1.49721,-0.07123 1.24033,0.01984 5.77246,-2.045006 6.03989,-2.751681 12.25022,-3.897649 16.8145,-3.102793 1.51202,0.263297 2.19921,0.908943 1.54469,1.451274 -0.1389,0.115062 -0.90173,0.524567 -1.69528,0.910045 -1.18704,0.576679 -1.64081,0.898337 -2.56075,1.815499 -0.75173,0.749306 -1.24136,1.383714 -1.49401,1.935584 -1.21311,2.64975 -0.57115,5.920807 1.58427,8.073375 0.5133,0.512671 1.97158,1.600524 3.48041,2.596486 5.52451,3.64646 8.06674,5.791409 15.14898,12.781814 7.11258,7.02033 10.13342,9.633176 13.93014,12.049076 2.57582,1.63903 5.94881,3.10827 6.46899,2.81789 0.67898,-0.37896 2.40677,-7.162006 2.1178,-8.313856 -0.0431,-0.17081 -0.58199,-0.68474 -1.19806,-1.14249 -0.61611,-0.45754 -1.93257,-1.65095 -2.92514,-2.65201 -3.68894,-3.71967 -6.01901,-8.17056 -7.20454,-13.762607 -1.21535,-5.732621 -0.36418,-12.718244 2.19053,-17.977086 1.22341,-2.518109 2.28402,-3.30919 3.16725,-2.362067 0.40533,0.434549 0.63403,1.070768 1.20146,3.342411 1.10014,4.403703 2.82862,6.508599 7.35569,8.957439 2.44682,1.323664 4.42318,2.867817 5.72379,4.472233 1.12316,1.385497 2.30929,4.061461 2.51775,5.680303 0.21075,1.636798 0.56175,1.784893 1.51939,0.641122 1.44735,-1.728788 4.13518,-3.388102 6.37558,-3.936086 1.41895,-0.347065 3.18202,-0.499732 5.57694,-0.482863 1.55844,0.01098 2.32818,-0.04839 3.01824,-0.232808 1.91497,-0.511732 3.61449,-1.632831 5.51921,-3.640593 2.50957,-2.645427 2.53498,-2.666887 3.10655,-2.61807 0.60697,0.05185 1.00007,0.492438 1.20811,1.35394 0.24469,1.013166 0.32048,3.966847 0.14415,5.615616 -1.01624,9.504576 -6.22075,16.820576 -14.58375,20.501206 -1.57043,0.691056 -4.14936,1.514426 -5.6263,1.796086 -1.42465,0.27165 -1.36744,0.19771 -1.57276,2.04048 -1.0071,9.04664 -4.30497,20.35921 -8.60092,29.50476 l -0.82615,1.75898 -7.23244,0.0543 -7.23246,0.0543 -1.37054,0.37721 c -7.08766,1.95076 -12.0279,7.42185 -13.12646,14.5364 -0.0836,0.54515 -0.14526,4.39642 -0.14594,9.19768 -6.4e-4,4.54279 -0.0423,8.25979 -0.0918,8.25979 -0.0498,0 -0.81264,-0.47517 -1.69522,-1.05585 -5.00428,-3.29297 -10.02587,-8.24492 -14.6567,-14.45379 -2.4897,-3.33811 -4.25929,-6.01465 -8.44095,-12.76843 -5.04743,-8.15196 -8.28321,-12.3987 -13.19964,-17.32368 -3.68826,-3.69472 -6.498581,-6.01366 -10.609917,-8.75482 -7.409155,-4.93993 -16.253516,-8.51543 -24.057069,-9.72548 -2.781805,-0.43137 -7.365077,-0.46779 -9.198524,-0.0732 -3.252214,0.7003 -4.430148,1.57092 -5.010776,3.70368 -0.401824,1.47593 -0.3505,6.4832 0.09318,9.08936 1.78512,10.48582 6.975198,21.53488 14.679247,31.25011 2.077407,2.61969 6.775385,7.40127 9.060263,9.22155 6.123401,4.87833 11.505295,6.95005 15.729672,6.05525 2.576903,-0.5458 4.198434,-2.18713 3.900864,-3.94834 -0.049,-0.29005 -0.57363,-1.4028 -1.165851,-2.47259 -2.242473,-4.05086 -2.72714,-6.52224 -1.484181,-7.56816 0.843121,-0.70948 2.253902,-0.43912 5.295452,1.0145 4.80442,2.29608 9.89437,5.81128 17.62236,12.1703 5.58096,4.59221 10.20518,6.35538 16.67975,6.35978 1.57936,7.6e-4 5.92303,-0.34124 6.36841,-0.50189 0.13851,-0.0499 0.18037,0.38232 0.18037,1.86408 v 1.92912 l -1.83952,1.08017 c -7.57019,4.4451 -16.24371,7.29656 -26.02004,8.55436 -1.28478,0.16522 -3.31441,0.24221 -7.19955,0.27329 -2.9757,0.0235 -5.67,0.0186 -5.98739,-0.0124 z m 42.28268,-60.86306 c 0.57314,-0.23945 1.00566,-1.04333 0.84301,-1.56668 -0.13454,-0.43343 -2.24187,-3.68683 -3.24051,-5.0031 -3.41721,-4.50431 -8.07066,-5.88912 -12.63118,-3.75899 -1.31101,0.6124 -1.64493,0.97416 -1.64493,1.78238 0,0.42225 0.1013,0.65767 0.42151,0.97793 0.534,0.53378 1.25842,0.56163 2.0906,0.0806 1.51288,-0.8748 3.57074,-1.11652 5.13438,-0.60313 1.18588,0.38934 2.64289,1.42247 3.64158,2.58266 0.774,0.89865 2.90991,4.00701 3.41805,4.97371 0.16739,0.31824 0.87396,0.72779 1.27692,0.74013 0.10177,0.004 0.41258,-0.0889 0.69057,-0.20563 z"
         id="path1" /><path
         style="opacity:0.24607;fill:#477fd1;stroke-width:0.723689;filter:url(#filter8);fill-opacity:1"
         d="m 187.60523,189.70071 c -0.99186,-0.44073 -2.38764,-1.00775 -3.10182,-1.25974 l -1.2985,-0.45845 -11.75844,-0.0829 c -8.4954,-0.0605 -11.93867,-0.1313 -12.40782,-0.25714 -2.2052,-0.59161 -4.18777,-1.46734 -5.62159,-2.48298 -2.02037,-1.43127 -4.12052,-4.0443 -5.05546,-6.29044 -0.95049,-2.28303 -1.0296,-2.83458 -1.17583,-8.19954 -0.0739,-2.69795 -0.10905,-8.50872 -0.0797,-12.91266 0.0521,-7.56881 0.0725,-8.0769 0.36193,-9.27716 1.44901,-5.99231 5.91933,-10.27507 11.87161,-11.37358 1.56685,-0.28918 26.9691,-0.28893 28.55345,2.8e-4 6.06827,1.10756 10.81361,5.94798 11.90367,12.14221 0.15636,0.88875 0.21515,2.32503 0.21516,5.26202 6e-5,6.26554 -0.27238,18.76686 -0.4377,20.08612 -0.31306,2.49766 -1.13821,4.74896 -2.44712,6.67642 -0.83267,1.22628 -2.41947,2.87106 -3.69873,3.83387 -1.23758,0.93141 -1.65131,1.5725 -1.99512,3.09199 -0.32521,1.43649 -0.49124,1.84588 -0.85092,2.09772 -0.50817,0.35601 -1.10355,0.23675 -2.97786,-0.59592 z m -0.98916,-12.64712 c 0.12129,-0.0991 0.33242,-0.60234 0.46975,-1.11816 0.47799,-1.79721 1.40347,-2.88217 2.96723,-3.47829 1.512,-0.57643 1.50476,-1.21466 -0.0204,-1.77269 -1.53634,-0.5625 -2.45716,-1.66879 -2.94554,-3.53948 -0.29836,-1.14237 -0.4828,-1.37867 -0.97952,-1.25389 -0.28441,0.0719 -0.40276,0.23079 -0.52224,0.70398 -0.40664,1.60979 -1.09844,2.87161 -1.87916,3.42752 -0.2587,0.18416 -0.83451,0.48256 -1.27943,0.66296 -0.44511,0.1803 -0.86731,0.41892 -0.93855,0.53027 -0.22292,0.34863 0.0204,0.92786 0.43264,1.03142 1.76707,0.44346 2.9475,1.70343 3.57383,3.81504 0.33857,1.14112 0.627,1.39622 1.12124,0.99132 z m -16.46625,-3.21107 c 0.30287,-0.15667 0.46606,-0.38845 0.5836,-0.82961 1.8249,-6.84211 4.30068,-9.60335 10.37952,-11.57643 1.38789,-0.45034 1.87553,-0.80945 1.87553,-1.38057 0,-0.63454 -0.41899,-0.94406 -1.9477,-1.43925 -5.95281,-1.92768 -8.26851,-4.41459 -10.16478,-10.91589 -0.34892,-1.19565 -0.82547,-1.70933 -1.44318,-1.5552 -0.54685,0.13638 -0.85566,0.47925 -1.02456,1.13796 -0.60202,2.3456 -1.62868,4.79685 -2.65894,6.34894 -1.47286,2.2192 -4.21346,3.97847 -7.96357,5.11193 -0.70703,0.21374 -1.13124,0.43384 -1.33468,0.69222 -0.68744,0.87401 -0.27409,1.31881 1.93844,2.08614 3.05706,1.0602 4.73063,2.04293 6.28511,3.69068 1.50867,1.59935 2.47303,3.46209 3.45918,6.68231 0.49591,1.61944 0.6132,1.84112 1.07133,2.02679 0.41506,0.16816 0.47419,0.1634 0.9447,-0.0801 z m -66.72947,7.19851 c -8.569361,-0.83014 -15.011081,-2.62313 -22.058871,-6.13995 -6.2084,-3.09803 -11.62169,-7.0512 -17.055916,-12.45547 -4.597768,-4.57251 -7.715378,-8.45848 -10.590644,-13.20135 -6.621133,-10.92165 -9.494209,-23.22894 -8.352724,-35.78033 1.392431,-15.31049 10.581604,-31.33899 22.884042,-39.916332 9.698782,-6.762034 21.482302,-9.120726 34.811843,-6.968226 1.39863,0.225846 2.3323,0.295927 3.31842,0.249047 1.49721,-0.07123 1.24033,0.01984 5.77246,-2.045006 6.03989,-2.751681 12.25022,-3.897649 16.8145,-3.102793 1.51202,0.263297 2.19921,0.908943 1.54469,1.451274 -0.1389,0.115062 -0.90173,0.524567 -1.69528,0.910045 -1.18704,0.576679 -1.64081,0.898337 -2.56075,1.815499 -0.75173,0.749306 -1.24136,1.383714 -1.49401,1.935584 -1.21311,2.64975 -0.57115,5.920807 1.58427,8.073375 0.5133,0.512671 1.97158,1.600524 3.48041,2.596486 5.52451,3.64646 8.06674,5.791409 15.14898,12.781814 7.11258,7.020333 10.13342,9.633173 13.93014,12.049073 2.57582,1.63903 5.94881,3.10827 6.46899,2.81789 0.67898,-0.37896 2.40677,-7.162 2.1178,-8.31385 -0.0431,-0.17081 -0.58199,-0.68474 -1.19806,-1.14249 -0.61611,-0.457543 -1.93257,-1.650953 -2.92514,-2.652013 -3.68894,-3.71967 -6.01901,-8.17056 -7.20454,-13.762607 -1.21535,-5.732621 -0.36418,-12.718244 2.19053,-17.977086 1.22341,-2.518109 2.28402,-3.30919 3.16725,-2.362067 0.40533,0.434549 0.63403,1.070768 1.20146,3.342411 1.10014,4.403703 2.82862,6.508599 7.35569,8.957439 2.44682,1.323664 4.42318,2.867817 5.72379,4.472233 1.12316,1.385497 2.30929,4.061461 2.51775,5.680303 0.21075,1.636798 0.56175,1.784893 1.51939,0.641122 1.44735,-1.728788 4.13518,-3.388102 6.37558,-3.936086 1.41895,-0.347065 3.18202,-0.499732 5.57694,-0.482863 1.55844,0.01098 2.32818,-0.04839 3.01824,-0.232808 1.91497,-0.511732 3.61449,-1.632831 5.51921,-3.640593 2.50957,-2.645427 2.53498,-2.666887 3.10655,-2.61807 0.60697,0.05185 1.00007,0.492438 1.20811,1.35394 0.24469,1.013166 0.32048,3.966847 0.14415,5.615616 -1.01624,9.504576 -6.22075,16.820576 -14.58375,20.501209 -1.57043,0.69105 -4.14936,1.51442 -5.6263,1.79608 -1.42465,0.27165 -1.36744,0.19771 -1.57276,2.04048 -1.0071,9.04664 -4.30497,20.35921 -8.60092,29.50476 l -0.82615,1.75898 -7.23244,0.0543 -7.23246,0.0543 -1.37054,0.37721 c -7.08766,1.95076 -12.0279,7.42185 -13.12646,14.5364 -0.0836,0.54515 -0.14526,4.39642 -0.14594,9.19768 -6.4e-4,4.54279 -0.0423,8.25979 -0.0918,8.25979 -0.0498,0 -0.81264,-0.47517 -1.69522,-1.05585 -5.00428,-3.29297 -10.02587,-8.24492 -14.6567,-14.45379 -2.4897,-3.33811 -4.25929,-6.01465 -8.44095,-12.76843 -5.04743,-8.15196 -8.28321,-12.3987 -13.19964,-17.32368 -3.68826,-3.69472 -6.498581,-6.01366 -10.609921,-8.75482 -7.40915,-4.93993 -16.25351,-8.51543 -24.05707,-9.72548 -2.7818,-0.43137 -7.365072,-0.46779 -9.198519,-0.0732 -3.252214,0.7003 -4.430148,1.57092 -5.010776,3.70368 -0.401824,1.47593 -0.3505,6.4832 0.09318,9.08936 1.78512,10.48582 6.975198,21.53488 14.679245,31.25011 2.07741,2.61969 6.77539,7.40127 9.06026,9.22155 6.12341,4.87833 11.5053,6.95005 15.72968,6.05525 2.5769,-0.5458 4.198431,-2.18713 3.900861,-3.94834 -0.049,-0.29005 -0.57363,-1.4028 -1.165851,-2.47259 -2.24247,-4.05086 -2.72714,-6.52224 -1.48418,-7.56816 0.84312,-0.70948 2.253901,-0.43912 5.295451,1.0145 4.80442,2.29608 9.89437,5.81128 17.62236,12.1703 5.58096,4.59221 10.20518,6.35538 16.67975,6.35978 1.57936,7.6e-4 5.92303,-0.34124 6.36841,-0.50189 0.13851,-0.0499 0.18037,0.38232 0.18037,1.86408 v 1.92912 l -1.83952,1.08017 c -7.57019,4.4451 -16.24371,7.29656 -26.02004,8.55436 -1.28478,0.16522 -3.31441,0.24221 -7.19955,0.27329 -2.9757,0.0235 -5.67,0.0186 -5.98739,-0.0124 z m 42.28268,-60.86306 c 0.57314,-0.23945 1.00566,-1.04333 0.84301,-1.56668 -0.13454,-0.43343 -2.24187,-3.68683 -3.24051,-5.0031 -3.41721,-4.50431 -8.07066,-5.88912 -12.63118,-3.75899 -1.31101,0.6124 -1.64493,0.97416 -1.64493,1.78238 0,0.42225 0.1013,0.65767 0.42151,0.97793 0.534,0.53378 1.25842,0.56163 2.0906,0.0806 1.51288,-0.8748 3.57074,-1.11652 5.13438,-0.60313 1.18588,0.38934 2.64289,1.42247 3.64158,2.58266 0.774,0.89865 2.90991,4.00701 3.41805,4.97371 0.16739,0.31824 0.87396,0.72779 1.27692,0.74013 0.10177,0.004 0.41258,-0.0889 0.69057,-0.20563 z"
         id="path1-3" /><path
         style="opacity:0.126897;fill:#477fd1;stroke-width:0.723689;filter:url(#filter7);fill-opacity:1"
         d="m 187.60523,189.70071 c -0.99186,-0.44073 -2.38764,-1.00775 -3.10182,-1.25974 l -1.2985,-0.45845 -11.75844,-0.0829 c -8.4954,-0.0605 -11.93867,-0.1313 -12.40782,-0.25714 -2.2052,-0.59161 -4.18777,-1.46734 -5.62159,-2.48298 -2.02037,-1.43127 -4.12052,-4.0443 -5.05546,-6.29044 -0.95049,-2.28303 -1.0296,-2.83458 -1.17583,-8.19954 -0.0739,-2.69795 -0.10905,-8.50872 -0.0797,-12.91266 0.0521,-7.56881 0.0725,-8.0769 0.36193,-9.27716 1.44901,-5.99231 5.91933,-10.27507 11.87161,-11.37358 1.56685,-0.28918 26.9691,-0.28893 28.55345,2.8e-4 6.06827,1.10756 10.81361,5.94798 11.90367,12.14221 0.15636,0.88875 0.21515,2.32503 0.21516,5.26202 6e-5,6.26554 -0.27238,18.76686 -0.4377,20.08612 -0.31306,2.49766 -1.13821,4.74896 -2.44712,6.67642 -0.83267,1.22628 -2.41947,2.87106 -3.69873,3.83387 -1.23758,0.93141 -1.65131,1.5725 -1.99512,3.09199 -0.32521,1.43649 -0.49124,1.84588 -0.85092,2.09772 -0.50817,0.35601 -1.10355,0.23675 -2.97786,-0.59592 z m -0.98916,-12.64712 c 0.12129,-0.0991 0.33242,-0.60234 0.46975,-1.11816 0.47799,-1.79721 1.40347,-2.88217 2.96723,-3.47829 1.512,-0.57643 1.50476,-1.21466 -0.0204,-1.77269 -1.53634,-0.5625 -2.45716,-1.66879 -2.94554,-3.53948 -0.29836,-1.14237 -0.4828,-1.37867 -0.97952,-1.25389 -0.28441,0.0719 -0.40276,0.23079 -0.52224,0.70398 -0.40664,1.60979 -1.09844,2.87161 -1.87916,3.42752 -0.2587,0.18416 -0.83451,0.48256 -1.27943,0.66296 -0.44511,0.1803 -0.86731,0.41892 -0.93855,0.53027 -0.22292,0.34863 0.0204,0.92786 0.43264,1.03142 1.76707,0.44346 2.9475,1.70343 3.57383,3.81504 0.33857,1.14112 0.627,1.39622 1.12124,0.99132 z m -16.46625,-3.21107 c 0.30287,-0.15667 0.46606,-0.38845 0.5836,-0.82961 1.8249,-6.84211 4.30068,-9.60335 10.37952,-11.57643 1.38789,-0.45034 1.87553,-0.80945 1.87553,-1.38057 0,-0.63454 -0.41899,-0.94406 -1.9477,-1.43925 -5.95281,-1.92768 -8.26851,-4.41459 -10.16478,-10.91589 -0.34892,-1.19565 -0.82547,-1.70933 -1.44318,-1.5552 -0.54685,0.13638 -0.85566,0.47925 -1.02456,1.13796 -0.60202,2.3456 -1.62868,4.79685 -2.65894,6.34894 -1.47286,2.2192 -4.21346,3.97847 -7.96357,5.11193 -0.70703,0.21374 -1.13124,0.43384 -1.33468,0.69222 -0.68744,0.87401 -0.27409,1.31881 1.93844,2.08614 3.05706,1.0602 4.73063,2.04293 6.28511,3.69068 1.50867,1.59935 2.47303,3.46209 3.45918,6.68231 0.49591,1.61944 0.6132,1.84112 1.07133,2.02679 0.41506,0.16816 0.47419,0.1634 0.9447,-0.0801 z m -66.72947,7.19851 c -8.569361,-0.83014 -15.011081,-2.62313 -22.058871,-6.13995 -6.2084,-3.09803 -11.62169,-7.0512 -17.055916,-12.45547 -4.597768,-4.57251 -7.715378,-8.45848 -10.590644,-13.20135 -6.621133,-10.92165 -9.494209,-23.22894 -8.352724,-35.78033 1.392431,-15.31049 10.581604,-31.33899 22.884042,-39.916332 9.698782,-6.762034 21.482302,-9.120726 34.811843,-6.968226 1.39863,0.225846 2.3323,0.295927 3.31842,0.249047 1.49721,-0.07123 1.24033,0.01984 5.77246,-2.045006 6.03989,-2.751681 12.25022,-3.897649 16.8145,-3.102793 1.51202,0.263297 2.19921,0.908943 1.54469,1.451274 -0.1389,0.115062 -0.90173,0.524567 -1.69528,0.910045 -1.18704,0.576679 -1.64081,0.898337 -2.56075,1.815499 -0.75173,0.749306 -1.24136,1.383714 -1.49401,1.935584 -1.21311,2.64975 -0.57115,5.920807 1.58427,8.073375 0.5133,0.512671 1.97158,1.600524 3.48041,2.596486 5.52451,3.64646 8.06674,5.791409 15.14898,12.781814 7.11258,7.020333 10.13342,9.633173 13.93014,12.049073 2.57582,1.63903 5.94881,3.10827 6.46899,2.81789 0.67898,-0.37896 2.40677,-7.162 2.1178,-8.31385 -0.0431,-0.17081 -0.58199,-0.68474 -1.19806,-1.14249 -0.61611,-0.457543 -1.93257,-1.650953 -2.92514,-2.652013 -3.68894,-3.71967 -6.01901,-8.17056 -7.20454,-13.762607 -1.21535,-5.732621 -0.36418,-12.718244 2.19053,-17.977086 1.22341,-2.518109 2.28402,-3.30919 3.16725,-2.362067 0.40533,0.434549 0.63403,1.070768 1.20146,3.342411 1.10014,4.403703 2.82862,6.508599 7.35569,8.957439 2.44682,1.323664 4.42318,2.867817 5.72379,4.472233 1.12316,1.385497 2.30929,4.061461 2.51775,5.680303 0.21075,1.636798 0.56175,1.784893 1.51939,0.641122 1.44735,-1.728788 4.13518,-3.388102 6.37558,-3.936086 1.41895,-0.347065 3.18202,-0.499732 5.57694,-0.482863 1.55844,0.01098 2.32818,-0.04839 3.01824,-0.232808 1.91497,-0.511732 3.61449,-1.632831 5.51921,-3.640593 2.50957,-2.645427 2.53498,-2.666887 3.10655,-2.61807 0.60697,0.05185 1.00007,0.492438 1.20811,1.35394 0.24469,1.013166 0.32048,3.966847 0.14415,5.615616 -1.01624,9.504576 -6.22075,16.820576 -14.58375,20.501209 -1.57043,0.69105 -4.14936,1.51442 -5.6263,1.79608 -1.42465,0.27165 -1.36744,0.19771 -1.57276,2.04048 -1.0071,9.04664 -4.30497,20.35921 -8.60092,29.50476 l -0.82615,1.75898 -7.23244,0.0543 -7.23246,0.0543 -1.37054,0.37721 c -7.08766,1.95076 -12.0279,7.42185 -13.12646,14.5364 -0.0836,0.54515 -0.14526,4.39642 -0.14594,9.19768 -6.4e-4,4.54279 -0.0423,8.25979 -0.0918,8.25979 -0.0498,0 -0.81264,-0.47517 -1.69522,-1.05585 -5.00428,-3.29297 -10.02587,-8.24492 -14.6567,-14.45379 -2.4897,-3.33811 -4.25929,-6.01465 -8.44095,-12.76843 -5.04743,-8.15196 -8.28321,-12.3987 -13.19964,-17.32368 -3.68826,-3.69472 -6.498581,-6.01366 -10.609921,-8.75482 -7.40915,-4.93993 -16.25351,-8.51543 -24.05707,-9.72548 -2.7818,-0.43137 -7.365072,-0.46779 -9.198519,-0.0732 -3.252214,0.7003 -4.430148,1.57092 -5.010776,3.70368 -0.401824,1.47593 -0.3505,6.4832 0.09318,9.08936 1.78512,10.48582 6.975198,21.53488 14.679245,31.25011 2.07741,2.61969 6.77539,7.40127 9.06026,9.22155 6.12341,4.87833 11.5053,6.95005 15.72968,6.05525 2.5769,-0.5458 4.198431,-2.18713 3.900861,-3.94834 -0.049,-0.29005 -0.57363,-1.4028 -1.165851,-2.47259 -2.24247,-4.05086 -2.72714,-6.52224 -1.48418,-7.56816 0.84312,-0.70948 2.253901,-0.43912 5.295451,1.0145 4.80442,2.29608 9.89437,5.81128 17.62236,12.1703 5.58096,4.59221 10.20518,6.35538 16.67975,6.35978 1.57936,7.6e-4 5.92303,-0.34124 6.36841,-0.50189 0.13851,-0.0499 0.18037,0.38232 0.18037,1.86408 v 1.92912 l -1.83952,1.08017 c -7.57019,4.4451 -16.24371,7.29656 -26.02004,8.55436 -1.28478,0.16522 -3.31441,0.24221 -7.19955,0.27329 -2.9757,0.0235 -5.67,0.0186 -5.98739,-0.0124 z m 42.28268,-60.86306 c 0.57314,-0.23945 1.00566,-1.04333 0.84301,-1.56668 -0.13454,-0.43343 -2.24187,-3.68683 -3.24051,-5.0031 -3.41721,-4.50431 -8.07066,-5.88912 -12.63118,-3.75899 -1.31101,0.6124 -1.64493,0.97416 -1.64493,1.78238 0,0.42225 0.1013,0.65767 0.42151,0.97793 0.534,0.53378 1.25842,0.56163 2.0906,0.0806 1.51288,-0.8748 3.57074,-1.11652 5.13438,-0.60313 1.18588,0.38934 2.64289,1.42247 3.64158,2.58266 0.774,0.89865 2.90991,4.00701 3.41805,4.97371 0.16739,0.31824 0.87396,0.72779 1.27692,0.74013 0.10177,0.004 0.41258,-0.0889 0.69057,-0.20563 z"
         id="path1-6" /></g></g></svg>
